<?xml version="1.0" standalone="no"?>
<!DOCTYPE svg PUBLIC "-//W3C//DTD SVG 20010904//EN"
 "http://www.w3.org/TR/2001/REC-SVG-20010904/DTD/svg10.dtd">
<svg version="1.0" xmlns="http://www.w3.org/2000/svg"
 width="1000.000000pt" height="1000.000000pt" viewBox="0 0 1000.000000 1000.000000"
 preserveAspectRatio="xMidYMid meet">
<metadata>
Created by potrace 1.11, written by Peter Selinger 2001-2013
</metadata>
<g transform="translate(0.000000,1000.000000) scale(0.100000,-0.100000)"
fill="#000000" stroke="none">
<path d="M0 5000 l0 -5000 5000 0 5000 0 0 5000 0 5000 -5000 0 -5000 0 0
-5000z m2005 2223 c90 -228 736 -1944 836 -2222 77 -212 141 -387 144 -389 17
-17 43 45 144 344 63 187 280 776 482 1309 l368 970 330 3 331 2 0 -2240 0
-2240 -256 0 -255 0 4 1493 c3 955 8 1550 15 1652 7 88 18 275 27 415 8 140
18 275 21 298 5 37 3 43 -11 40 -13 -2 -56 -122 -174 -478 -151 -457 -170
-508 -511 -1337 l-355 -863 -155 0 -155 0 -360 863 c-337 808 -369 892 -521
1337 -88 261 -166 476 -173 478 -14 5 -14 1 4 -236 48 -625 48 -631 52 -2179
l4 -1483 -250 0 -251 0 0 2240 0 2240 329 0 c304 0 329 -1 336 -17z m4299 -5
c36 -58 1427 -2790 1642 -3225 134 -271 248 -493 254 -493 8 0 9 21 5 68 -13
159 -56 804 -65 997 -5 117 -10 754 -10 1443 l0 1232 265 0 265 0 0 -2240 0
-2240 -283 0 -283 0 -766 1502 c-421 827 -848 1671 -949 1876 -100 204 -186
372 -191 372 -12 0 -11 -11 22 -465 46 -641 51 -855 48 -2120 l-3 -1160 -265
0 -265 0 -3 2225 c-1 1224 0 2231 3 2238 3 9 70 12 284 12 280 0 281 0 295
-22z"/>
</g>
</svg>
